<svg width="88" height="17" viewBox="0 0 88 17" fill="none" xmlns="http://www.w3.org/2000/svg">
<g clip-path="url(#clip0_4146_2609)">
<path d="M26.0732 10.8609C26.1414 11.7387 26.4964 12.4353 27.1245 12.9647C27.7526 13.4941 28.5718 13.7588 29.5821 13.7588C30.4697 13.7588 31.1796 13.5638 31.7258 13.1736C32.272 12.7836 32.545 12.2402 32.545 11.5575C32.545 11.07 32.3948 10.6659 32.0944 10.3872C31.794 10.0947 31.3981 9.87184 30.8793 9.71853C30.3604 9.5653 29.6504 9.39816 28.7219 9.23094C27.7799 9.06372 26.9743 8.84086 26.3053 8.56222C25.6362 8.28357 25.0901 7.86561 24.6668 7.30834C24.2435 6.73713 24.0387 5.99874 24.0387 5.07924C24.0387 4.2294 24.2572 3.47708 24.6942 2.80835C25.131 2.13962 25.7318 1.62414 26.5237 1.26191C27.302 0.899684 28.2031 0.704636 29.2135 0.704636C30.2512 0.704636 31.1796 0.899684 31.9989 1.3037C32.8181 1.6938 33.4598 2.23714 33.9241 2.93373C34.3883 3.63032 34.6477 4.41051 34.6887 5.30215H32.3402C32.2583 4.5359 31.9306 3.92289 31.3708 3.46315C30.7974 3.0034 30.0873 2.76655 29.2135 2.76655C28.367 2.76655 27.698 2.94767 27.1928 3.32383C26.6876 3.69999 26.4418 4.2294 26.4418 4.89813C26.4418 5.37181 26.592 5.7619 26.8924 6.04054C27.1928 6.31918 27.5887 6.52815 28.0803 6.68141C28.5718 6.82072 29.2954 6.97398 30.2239 7.14116C31.166 7.30834 31.9716 7.53125 32.6542 7.8238C33.337 8.10245 33.8831 8.52041 34.32 9.0777C34.7433 9.635 34.9617 10.3594 34.9617 11.265C34.9617 12.1427 34.7296 12.9229 34.279 13.6195C33.8285 14.3161 33.1867 14.8455 32.3675 15.2356C31.5483 15.6256 30.6198 15.8207 29.5821 15.8207C28.4352 15.8207 27.4249 15.6117 26.551 15.1799C25.6772 14.7619 24.9945 14.1628 24.503 13.4105C24.0114 12.6581 23.7657 11.7944 23.752 10.8192L26.0732 10.8609ZM37.4877 6.86252H35.6444V4.85633H37.4877V1.81918H39.7542V4.8424H42.3075V6.84859H39.7542V12.5049C39.7542 12.9229 39.8361 13.2294 40 13.4105C40.1638 13.5916 40.4505 13.6752 40.8465 13.6752H42.5532V15.6953H40.3959C39.3855 15.6953 38.6483 15.4585 38.184 14.9708C37.7198 14.4972 37.4877 13.7448 37.4877 12.7417V6.86252ZM53.8448 4.85633V15.6953H51.8787L51.6329 14.0375C51.2643 14.5808 50.7864 14.9987 50.1992 15.3331C49.6121 15.6535 48.9432 15.8207 48.1649 15.8207C47.1955 15.8207 46.3353 15.5978 45.5707 15.152C44.8061 14.7062 44.219 14.0653 43.782 13.2294C43.3588 12.3935 43.1403 11.4043 43.1403 10.2758C43.1403 9.17522 43.3588 8.19996 43.7957 7.36407C44.2326 6.52815 44.8334 5.87336 45.5843 5.41361C46.3489 4.95385 47.2091 4.73094 48.1513 4.73094C48.9432 4.73094 49.6258 4.88419 50.1992 5.19069C50.7864 5.4972 51.2506 5.91516 51.6056 6.44457L51.8787 4.85633H53.8448ZM50.7727 12.895C51.3462 12.2263 51.6192 11.3764 51.6192 10.3176C51.6192 9.24485 51.3325 8.36718 50.7727 7.69843C50.1992 7.01577 49.462 6.68141 48.5335 6.68141C47.6051 6.68141 46.8541 7.01577 46.2943 7.6845C45.7208 8.3532 45.4477 9.21703 45.4477 10.2758C45.4477 11.3486 45.7345 12.2263 46.2943 12.895C46.8677 13.5638 47.6051 13.8981 48.5335 13.8981C49.462 13.8981 50.2129 13.5638 50.7727 12.895ZM64.249 14.748C63.3888 15.4585 62.2965 15.8207 60.9448 15.8207C59.8934 15.8207 58.965 15.5978 58.1594 15.1381C57.3539 14.6783 56.7394 14.0235 56.3025 13.1736C55.8656 12.3238 55.6471 11.3486 55.6471 10.248C55.6471 9.14733 55.8656 8.18605 56.3161 7.35013C56.7531 6.51422 57.3811 5.87336 58.2004 5.41361C59.006 4.95385 59.948 4.73094 61.013 4.73094C62.3375 4.73094 63.4297 5.09318 64.2763 5.8037C65.1228 6.51422 65.6416 7.48946 65.8601 8.71545H63.5526C63.4024 8.08854 63.102 7.60091 62.6379 7.23868C62.1872 6.87645 61.6274 6.68141 60.9584 6.68141C60.0573 6.68141 59.3336 7.01577 58.7875 7.67057C58.2413 8.33929 57.9682 9.18913 57.9682 10.248C57.9682 11.3207 58.2413 12.1984 58.7875 12.8672C59.3336 13.5359 60.0573 13.8702 60.9584 13.8702C61.6547 13.8702 62.2282 13.6891 62.6788 13.3129C63.1294 12.9368 63.4297 12.4353 63.5662 11.7944H65.8464C65.6416 13.0622 65.0955 14.0375 64.249 14.748ZM67.6488 0.871819H69.888V10.1504L74.7486 4.85633H77.343L73.3833 9.21703L77.602 15.6953H74.9398L71.7858 10.8888L69.9016 12.9229V15.6953H67.6624V0.871819H67.6488ZM80.1559 12.1148C80.1969 12.686 80.4559 13.1458 80.9337 13.508C81.4116 13.8702 82.0263 14.0514 82.791 14.0514C83.4737 14.0514 84.0196 13.926 84.4425 13.6613C84.8663 13.3966 85.0712 13.0483 85.0712 12.6164C85.0712 12.2542 84.9753 11.9755 84.7843 11.7944C84.5933 11.6133 84.3335 11.4739 84.0057 11.4043C83.6778 11.3207 83.1729 11.2511 82.5041 11.1675C81.5755 11.056 80.8108 10.9027 80.21 10.7077C79.6092 10.5127 79.1175 10.2201 78.7626 9.80214C78.3945 9.38417 78.2167 8.82688 78.2167 8.11635C78.2167 7.44766 78.3945 6.86252 78.7626 6.34704C79.1314 5.83156 79.6371 5.42753 80.2781 5.1489C80.9198 4.87027 81.6575 4.73094 82.4631 4.73094C83.8008 4.73094 84.8933 5.03745 85.7261 5.63652C86.5588 6.24952 87.0096 7.09936 87.0915 8.19996H84.9072C84.8523 7.71237 84.6064 7.2944 84.1835 6.9879C83.7598 6.66748 83.2139 6.51422 82.5582 6.51422C81.9033 6.51422 81.3845 6.63961 80.9747 6.89038C80.5788 7.14116 80.3739 7.48946 80.3739 7.92132C80.3739 8.24177 80.4698 8.49252 80.6747 8.64583C80.8788 8.81297 81.1247 8.92447 81.4255 8.98019C81.7255 9.04981 82.2173 9.11951 82.9 9.20304C83.8147 9.30056 84.5794 9.45387 85.2072 9.66281C85.8358 9.87184 86.3268 10.1922 86.6957 10.6381C87.0645 11.0839 87.2555 11.683 87.2555 12.4492C87.2555 13.1319 87.0645 13.717 86.6686 14.2325C86.2859 14.748 85.7539 15.1381 85.0712 15.4167C84.3884 15.6953 83.6369 15.8347 82.791 15.8347C81.3706 15.8347 80.21 15.5003 79.3363 14.8455C78.4626 14.1907 77.9979 13.2851 77.9708 12.1287H80.1559V12.1148Z" fill="white"/>
<path d="M11.4672 11.5332L14.971 17H12.3535L8.24027 10.5769L4.12706 17H1.52341L5.02726 11.5474H0V9.47775H16.4944V11.5332H11.4672Z" fill="white"/>
<path d="M16.4944 5.39547V7.46516V7.47943H0V5.39547H4.93032L1.46801 0H4.08552L8.24027 6.50881L12.4089 0H15.0264L11.5641 5.39547H16.4944Z" fill="white"/>
</g>
<defs>
<clipPath id="clip0_4146_2609">
<rect width="87.3721" height="17" fill="white"/>
</clipPath>
</defs>
</svg>
